<?xml version="1.0" encoding="UTF-8"?>
<!DOCTYPE svg PUBLIC "-//W3C//DTD SVG 1.1//EN" "http://www.w3.org/Graphics/SVG/1.1/DTD/svg11.dtd">
<svg xmlns="http://www.w3.org/2000/svg" version="1.1" width="225px" height="243px" style="shape-rendering:geometricPrecision; text-rendering:geometricPrecision; image-rendering:optimizeQuality; fill-rule:evenodd; clip-rule:evenodd" xmlns:xlink="http://www.w3.org/1999/xlink">
<g><path style="opacity:1" fill="#15576d" d="M 163.5,-0.5 C 167.5,-0.5 171.5,-0.5 175.5,-0.5C 175.5,1.16667 175.5,2.83333 175.5,4.5C 170.927,5.23121 166.927,4.23121 163.5,1.5C 163.5,0.833333 163.5,0.166667 163.5,-0.5 Z"/></g>
<g><path style="opacity:1" fill="#0b1c2b" d="M 55.5,-0.5 C 64.5,-0.5 73.5,-0.5 82.5,-0.5C 82.6317,3.00134 81.2984,5.83468 78.5,8C 79.1476,9.43975 79.4809,10.9397 79.5,12.5C 75.5473,10.8039 71.3806,9.8039 67,9.5C 63.1827,10.0694 59.3494,10.4027 55.5,10.5C 54.6684,7.00434 54.6684,3.33767 55.5,-0.5 Z"/></g>
<g><path style="opacity:1" fill="#0f3b4a" d="M 109.5,-0.5 C 122.833,-0.5 136.167,-0.5 149.5,-0.5C 150.134,2.91596 148.8,4.91596 145.5,5.5C 137.782,4.79886 130.116,3.79886 122.5,2.5C 118.119,1.74319 113.786,0.743193 109.5,-0.5 Z"/></g>
<g><path style="opacity:1" fill="#0d2126" d="M 175.5,-0.5 C 187.5,-0.5 199.5,-0.5 211.5,-0.5C 211.099,5.90661 211.099,12.2399 211.5,18.5C 201.246,16.8035 191.412,13.8035 182,9.5C 179.088,9.35801 177.588,10.6913 177.5,13.5C 178.791,13.2627 179.791,13.596 180.5,14.5C 179.167,14.5 177.833,14.5 176.5,14.5C 176.5,11.5 176.5,8.5 176.5,5.5C 172.818,5.6653 169.152,5.49863 165.5,5C 164.177,4.18405 163.511,3.01739 163.5,1.5C 166.927,4.23121 170.927,5.23121 175.5,4.5C 175.5,2.83333 175.5,1.16667 175.5,-0.5 Z"/></g>
<g><path style="opacity:1" fill="#27697e" d="M 16.5,-0.5 C 26.8333,-0.5 37.1667,-0.5 47.5,-0.5C 47.5,1.83333 47.5,4.16667 47.5,6.5C 40.5,6.5 33.5,6.5 26.5,6.5C 26.5,11.5 26.5,16.5 26.5,21.5C 25.209,21.7373 24.209,21.404 23.5,20.5C 24.8001,18.777 25.4668,16.6103 25.5,14C 25.1184,9.49806 24.7851,4.99806 24.5,0.5C 20.9319,0.759344 19.5985,2.75934 20.5,6.5C 19.8333,6.16667 19.1667,5.83333 18.5,5.5C 18.0293,3.42136 17.3627,1.42136 16.5,-0.5 Z"/></g>
<g><path style="opacity:1" fill="#173443" d="M 47.5,-0.5 C 50.1667,-0.5 52.8333,-0.5 55.5,-0.5C 54.6684,3.33767 54.6684,7.00434 55.5,10.5C 46.25,11.4721 36.9167,11.8055 27.5,11.5C 27.5,16.5 27.5,21.5 27.5,26.5C 29.8333,26.5 32.1667,26.5 34.5,26.5C 30.428,27.5433 29.5947,29.8767 32,33.5C 32.6708,34.2524 33.5041,34.5858 34.5,34.5C 36.4594,36.2464 37.7927,38.4131 38.5,41C 38.3158,42.3756 37.6491,43.2089 36.5,43.5C 36.1816,41.1816 34.8483,39.8483 32.5,39.5C 30.2967,40.7674 27.9633,41.7674 25.5,42.5C 28.558,35.4303 27.7247,28.7636 23,22.5C 22.2263,16.5661 20.7263,10.8995 18.5,5.5C 19.1667,5.83333 19.8333,6.16667 20.5,6.5C 19.5985,2.75934 20.9319,0.759344 24.5,0.5C 24.7851,4.99806 25.1184,9.49806 25.5,14C 25.4668,16.6103 24.8001,18.777 23.5,20.5C 24.209,21.404 25.209,21.7373 26.5,21.5C 26.5,16.5 26.5,11.5 26.5,6.5C 33.5,6.5 40.5,6.5 47.5,6.5C 47.5,4.16667 47.5,1.83333 47.5,-0.5 Z"/></g>
<g><path style="opacity:1" fill="#0a1317" d="M 82.5,-0.5 C 91.5,-0.5 100.5,-0.5 109.5,-0.5C 113.786,0.743193 118.119,1.74319 122.5,2.5C 122.33,3.82207 122.663,4.98873 123.5,6C 127.424,6.25972 131.091,7.25972 134.5,9C 135.337,10.0113 135.67,11.1779 135.5,12.5C 135.5,12.8333 135.5,13.1667 135.5,13.5C 134.906,18.0793 132.24,20.0793 127.5,19.5C 127.968,16.1 126.635,13.7667 123.5,12.5C 122.749,13.376 122.249,14.376 122,15.5C 121.501,19.1516 121.335,22.8183 121.5,26.5C 120.5,26.5 119.5,26.5 118.5,26.5C 118.5,28.1667 118.5,29.8333 118.5,31.5C 115.5,31.5 112.5,31.5 109.5,31.5C 110.265,26.0936 107.931,24.0936 102.5,25.5C 101.523,22.7131 101.19,19.7131 101.5,16.5C 104.972,15.4228 105.305,13.7561 102.5,11.5C 96.6812,10.3475 90.6812,10.1808 84.5,11C 84.2468,15.5943 83.9135,20.0943 83.5,24.5C 80.7114,22.648 78.7114,20.148 77.5,17C 73.4167,15.2142 69.25,15.0475 65,16.5C 55.5673,22.106 45.4006,25.4393 34.5,26.5C 32.1667,26.5 29.8333,26.5 27.5,26.5C 27.5,21.5 27.5,16.5 27.5,11.5C 36.9167,11.8055 46.25,11.4721 55.5,10.5C 59.3494,10.4027 63.1827,10.0694 67,9.5C 71.3806,9.8039 75.5473,10.8039 79.5,12.5C 79.4809,10.9397 79.1476,9.43975 78.5,8C 81.2984,5.83468 82.6317,3.00134 82.5,-0.5 Z"/></g>
<g><path style="opacity:1" fill="#7f9fae" d="M 23.5,20.5 C 23.0782,15.6645 22.0782,10.9979 20.5,6.5C 22.0782,10.9979 23.0782,15.6645 23.5,20.5 Z"/></g>
<g><path style="opacity:1" fill="#68868d" d="M 102.5,11.5 C 105.305,13.7561 104.972,15.4228 101.5,16.5C 97.1667,16.5 92.8333,16.5 88.5,16.5C 87.1667,16.5 85.8333,16.5 84.5,16.5C 84.2865,14.8561 84.6198,13.3561 85.5,12C 91.1569,11.5006 96.8236,11.3339 102.5,11.5 Z"/></g>
<g><path style="opacity:1" fill="#2f433e" d="M 88.5,16.5 C 92.8333,16.5 97.1667,16.5 101.5,16.5C 101.19,19.7131 101.523,22.7131 102.5,25.5C 101.737,26.2679 100.737,26.7679 99.5,27C 99.7284,27.3988 100.062,27.5654 100.5,27.5C 99.7659,28.7079 99.4326,30.0413 99.5,31.5C 95.0605,31.947 91.7271,30.2803 89.5,26.5C 88.513,23.2317 88.1796,19.8984 88.5,16.5 Z"/></g>
<g><path style="opacity:1" fill="#17424b" d="M -0.5,-0.5 C 3.16667,-0.5 6.83333,-0.5 10.5,-0.5C 11.3174,7.75694 12.9841,15.7569 15.5,23.5C 13.5516,21.6796 12.5516,19.3462 12.5,16.5C 11.448,16.6495 10.448,16.4828 9.5,16C 6.25001,11.9289 2.91668,8.09556 -0.5,4.5C -0.5,2.83333 -0.5,1.16667 -0.5,-0.5 Z"/></g>
<g><path style="opacity:1" fill="#162f3b" d="M 149.5,-0.5 C 152.5,-0.5 155.5,-0.5 158.5,-0.5C 158.421,0.930472 158.754,2.26381 159.5,3.5C 158.271,4.28107 156.938,4.78107 155.5,5C 158.329,7.65863 161.329,10.1586 164.5,12.5C 167.503,13.0851 170.503,13.7518 173.5,14.5C 174.074,16.0589 174.74,17.5589 175.5,19C 183.039,21.5639 190.373,24.3972 197.5,27.5C 195.58,28.0652 193.913,29.0652 192.5,30.5C 191.5,30.5 190.5,30.5 189.5,30.5C 189.901,33.7479 190.568,36.9146 191.5,40C 190.552,40.4828 189.552,40.6495 188.5,40.5C 187.329,39.6554 185.995,38.9887 184.5,38.5C 183.602,37.8423 182.602,37.1757 181.5,36.5C 183.167,35.8333 184.833,35.1667 186.5,34.5C 187.428,33.2322 187.595,31.8989 187,30.5C 183.943,29.5495 180.777,29.2161 177.5,29.5C 178.844,33.4212 177.177,35.0878 172.5,34.5C 170.967,32.7549 168.967,31.7549 166.5,31.5C 164.751,29.744 162.751,28.4106 160.5,27.5C 165.284,26.8392 169.618,27.8392 173.5,30.5C 177.964,28.6982 182.63,28.0316 187.5,28.5C 187.759,25.5203 186.426,23.687 183.5,23C 181.645,22.5779 179.811,22.0779 178,21.5C 175.101,23.3911 171.934,23.8911 168.5,23C 167.897,21.1746 167.23,19.3413 166.5,17.5C 162.745,19.8659 158.745,21.8659 154.5,23.5C 152.488,23.1604 150.488,22.8271 148.5,22.5C 149.952,21.6981 151.618,21.1981 153.5,21C 149.993,19.6704 148.327,17.1704 148.5,13.5C 148.5,12.5 148.5,11.5 148.5,10.5C 146.127,12.1535 143.46,13.4869 140.5,14.5C 139.158,12.9951 137.492,12.3285 135.5,12.5C 135.67,11.1779 135.337,10.0113 134.5,9C 131.091,7.25972 127.424,6.25972 123.5,6C 122.663,4.98873 122.33,3.82207 122.5,2.5C 130.116,3.79886 137.782,4.79886 145.5,5.5C 148.8,4.91596 150.134,2.91596 149.5,-0.5 Z"/></g>
<g><path style="opacity:1" fill="#091215" d="M 158.5,-0.5 C 160.167,-0.5 161.833,-0.5 163.5,-0.5C 163.5,0.166667 163.5,0.833333 163.5,1.5C 163.511,3.01739 164.177,4.18405 165.5,5C 169.152,5.49863 172.818,5.6653 176.5,5.5C 176.5,8.5 176.5,11.5 176.5,14.5C 177.833,14.5 179.167,14.5 180.5,14.5C 182.359,14.4609 183.692,15.2942 184.5,17C 197.773,21.4759 211.106,25.6425 224.5,29.5C 224.5,32.8333 224.5,36.1667 224.5,39.5C 222.754,37.7484 220.754,36.4151 218.5,35.5C 213.992,33.5347 209.325,31.868 204.5,30.5C 202.249,29.3052 199.915,28.3052 197.5,27.5C 190.373,24.3972 183.039,21.5639 175.5,19C 174.74,17.5589 174.074,16.0589 173.5,14.5C 170.503,13.7518 167.503,13.0851 164.5,12.5C 161.329,10.1586 158.329,7.65863 155.5,5C 156.938,4.78107 158.271,4.28107 159.5,3.5C 158.754,2.26381 158.421,0.930472 158.5,-0.5 Z"/></g>
<g><path style="opacity:1" fill="#3e5761" d="M 83.5,24.5 C 85.483,29.5087 89.1497,32.6754 94.5,34C 90.5352,35.0656 86.5352,35.8989 82.5,36.5C 82.5,36.1667 82.5,35.8333 82.5,35.5C 81.1701,31.082 78.1701,29.4153 73.5,30.5C 73.5,31.5 73.5,32.5 73.5,33.5C 74.8734,33.3433 76.2068,33.51 77.5,34C 73.1368,34.8935 68.8035,35.8935 64.5,37C 59.1386,42.0143 52.8053,44.181 45.5,43.5C 45.552,41.0971 45.2186,38.7638 44.5,36.5C 44.8333,36.5 45.1667,36.5 45.5,36.5C 47.073,39.8931 49.7396,41.2264 53.5,40.5C 60.7123,40.2746 63.3789,36.608 61.5,29.5C 64.2235,27.7188 67.0568,26.0521 70,24.5C 70.7203,22.8876 70.5536,21.3876 69.5,20C 67.1667,19.3333 64.8333,19.3333 62.5,20C 58.2113,22.5052 53.878,24.6718 49.5,26.5C 48.1667,26.5 46.8333,26.5 45.5,26.5C 45.7852,28.288 45.4519,29.9547 44.5,31.5C 40.9062,30.5741 37.2396,30.2408 33.5,30.5C 33.4326,31.9587 33.7659,33.2921 34.5,34.5C 33.5041,34.5858 32.6708,34.2524 32,33.5C 29.5947,29.8767 30.428,27.5433 34.5,26.5C 45.4006,25.4393 55.5673,22.106 65,16.5C 69.25,15.0475 73.4167,15.2142 77.5,17C 78.7114,20.148 80.7114,22.648 83.5,24.5 Z"/></g>
<g><path style="opacity:1" fill="#284c56" d="M 148.5,13.5 C 148.327,17.1704 149.993,19.6704 153.5,21C 151.618,21.1981 149.952,21.6981 148.5,22.5C 148.062,22.4346 147.728,22.6012 147.5,23C 148.571,23.8518 149.571,24.6851 150.5,25.5C 148.278,25.178 146.444,25.8446 145,27.5C 144.172,23.1287 144.339,18.7953 145.5,14.5C 146.417,13.8728 147.417,13.5394 148.5,13.5 Z"/></g>
<g><path style="opacity:1" fill="#5990b3" d="M 135.5,38.5 C 135.635,36.4458 134.968,34.7791 133.5,33.5C 133.5,33.1667 133.5,32.8333 133.5,32.5C 134.283,28.3066 134.949,23.9732 135.5,19.5C 136.165,17.6309 136.831,15.6309 137.5,13.5C 138.298,15.0777 138.798,16.7444 139,18.5C 139.908,16.5614 141.408,15.5614 143.5,15.5C 142.823,23.2276 141.823,30.8943 140.5,38.5C 138.833,38.5 137.167,38.5 135.5,38.5 Z"/></g>
<g><path style="opacity:1" fill="#173c47" d="M 211.5,-0.5 C 215.833,-0.5 220.167,-0.5 224.5,-0.5C 224.5,9.5 224.5,19.5 224.5,29.5C 211.106,25.6425 197.773,21.4759 184.5,17C 183.692,15.2942 182.359,14.4609 180.5,14.5C 179.791,13.596 178.791,13.2627 177.5,13.5C 177.588,10.6913 179.088,9.35801 182,9.5C 191.412,13.8035 201.246,16.8035 211.5,18.5C 211.099,12.2399 211.099,5.90661 211.5,-0.5 Z"/></g>
<g><path style="opacity:1" fill="#356875" d="M -0.5,4.5 C 2.91668,8.09556 6.25001,11.9289 9.5,16C 10.448,16.4828 11.448,16.6495 12.5,16.5C 12.5516,19.3462 13.5516,21.6796 15.5,23.5C 17.3998,25.6195 19.0664,27.9528 20.5,30.5C 20.762,31.9778 20.4287,33.3112 19.5,34.5C 13.5089,25.5216 6.84221,17.1882 -0.5,9.5C -0.5,7.83333 -0.5,6.16667 -0.5,4.5 Z"/></g>
<g><path style="opacity:1" fill="#788a92" d="M 61.5,29.5 C 57.2315,30.3726 52.8982,30.7059 48.5,30.5C 48.4326,29.0413 48.7659,27.7079 49.5,26.5C 53.878,24.6718 58.2113,22.5052 62.5,20C 64.8333,19.3333 67.1667,19.3333 69.5,20C 70.5536,21.3876 70.7203,22.8876 70,24.5C 67.0568,26.0521 64.2235,27.7188 61.5,29.5 Z"/></g>
<g><path style="opacity:1" fill="#091214" d="M 10.5,-0.5 C 12.5,-0.5 14.5,-0.5 16.5,-0.5C 17.3627,1.42136 18.0293,3.42136 18.5,5.5C 20.7263,10.8995 22.2263,16.5661 23,22.5C 27.7247,28.7636 28.558,35.4303 25.5,42.5C 24.8333,42.5 24.1667,42.5 23.5,42.5C 22.8826,42.3893 22.3826,42.056 22,41.5C 21.8227,37.6437 21.3227,33.977 20.5,30.5C 19.0664,27.9528 17.3998,25.6195 15.5,23.5C 12.9841,15.7569 11.3174,7.75694 10.5,-0.5 Z"/></g>
<g><path style="opacity:1" fill="#0c181c" d="M 160.5,27.5 C 157.123,27.0405 153.789,26.3739 150.5,25.5C 149.571,24.6851 148.571,23.8518 147.5,23C 147.728,22.6012 148.062,22.4346 148.5,22.5C 150.488,22.8271 152.488,23.1604 154.5,23.5C 158.745,21.8659 162.745,19.8659 166.5,17.5C 167.23,19.3413 167.897,21.1746 168.5,23C 171.934,23.8911 175.101,23.3911 178,21.5C 179.811,22.0779 181.645,22.5779 183.5,23C 186.426,23.687 187.759,25.5203 187.5,28.5C 182.63,28.0316 177.964,28.6982 173.5,30.5C 169.618,27.8392 165.284,26.8392 160.5,27.5 Z"/></g>
<g><path style="opacity:1" fill="#567d88" d="M 49.5,26.5 C 48.7659,27.7079 48.4326,29.0413 48.5,30.5C 52.8982,30.7059 57.2315,30.3726 61.5,29.5C 63.3789,36.608 60.7123,40.2746 53.5,40.5C 54.7653,39.5207 56.0986,38.5207 57.5,37.5C 57.2907,36.914 56.9574,36.414 56.5,36C 53.0258,35.6993 49.6925,34.866 46.5,33.5C 45.6143,34.325 45.281,35.325 45.5,36.5C 45.1667,36.5 44.8333,36.5 44.5,36.5C 43.2449,34.3592 41.5782,33.6926 39.5,34.5C 42.9246,37.762 44.2579,41.762 43.5,46.5C 42.9296,50.2307 40.9296,52.3974 37.5,53C 36.6195,52.2917 35.9528,51.4584 35.5,50.5C 36.9778,50.762 38.3112,50.4287 39.5,49.5C 38.4867,47.4734 37.4867,45.4734 36.5,43.5C 37.6491,43.2089 38.3158,42.3756 38.5,41C 37.7927,38.4131 36.4594,36.2464 34.5,34.5C 33.7659,33.2921 33.4326,31.9587 33.5,30.5C 37.2396,30.2408 40.9062,30.5741 44.5,31.5C 45.4519,29.9547 45.7852,28.288 45.5,26.5C 46.8333,26.5 48.1667,26.5 49.5,26.5 Z"/></g>
<g><path style="opacity:1" fill="#7296a0" d="M 197.5,27.5 C 199.915,28.3052 202.249,29.3052 204.5,30.5C 204.912,32.9726 203.912,34.3059 201.5,34.5C 201.5,33.8333 201.167,33.5 200.5,33.5C 198.262,34.5366 195.929,34.7033 193.5,34C 192.663,32.9887 192.33,31.8221 192.5,30.5C 193.913,29.0652 195.58,28.0652 197.5,27.5 Z"/></g>
<g><path style="opacity:1" fill="#152e39" d="M 135.5,13.5 C 135.5,15.5 135.5,17.5 135.5,19.5C 134.949,23.9732 134.283,28.3066 133.5,32.5C 124.5,32.5 115.5,32.5 106.5,32.5C 106.5,30.8333 106.5,29.1667 106.5,27.5C 104.5,27.5 102.5,27.5 100.5,27.5C 100.062,27.5654 99.7284,27.3988 99.5,27C 100.737,26.7679 101.737,26.2679 102.5,25.5C 107.931,24.0936 110.265,26.0936 109.5,31.5C 112.5,31.5 115.5,31.5 118.5,31.5C 118.5,29.8333 118.5,28.1667 118.5,26.5C 119.5,26.5 120.5,26.5 121.5,26.5C 121.335,22.8183 121.501,19.1516 122,15.5C 122.249,14.376 122.749,13.376 123.5,12.5C 126.635,13.7667 127.968,16.1 127.5,19.5C 132.24,20.0793 134.906,18.0793 135.5,13.5 Z"/></g>
<g><path style="opacity:1" fill="#315964" d="M 184.5,38.5 C 180.506,36.9463 176.506,35.613 172.5,34.5C 177.177,35.0878 178.844,33.4212 177.5,29.5C 180.777,29.2161 183.943,29.5495 187,30.5C 187.595,31.8989 187.428,33.2322 186.5,34.5C 184.833,35.1667 183.167,35.8333 181.5,36.5C 182.602,37.1757 183.602,37.8423 184.5,38.5 Z"/></g>
<g><path style="opacity:1" fill="#385f6f" d="M 100.5,27.5 C 102.5,27.5 104.5,27.5 106.5,27.5C 106.5,29.1667 106.5,30.8333 106.5,32.5C 115.5,32.5 124.5,32.5 133.5,32.5C 133.5,32.8333 133.5,33.1667 133.5,33.5C 128.657,33.1165 123.991,33.7832 119.5,35.5C 120.34,36.735 121.34,37.735 122.5,38.5C 119.565,38.2833 116.731,37.6166 114,36.5C 113.167,36.8333 112.333,37.1667 111.5,37.5C 112.737,38.2807 113.737,39.2807 114.5,40.5C 110.351,41.8095 106.351,41.8095 102.5,40.5C 103.933,38.4418 104.6,36.1085 104.5,33.5C 102.219,33.9227 100.552,33.256 99.5,31.5C 99.4326,30.0413 99.7659,28.7079 100.5,27.5 Z"/></g>
<g><path style="opacity:1" fill="#345c67" d="M 192.5,30.5 C 192.33,31.8221 192.663,32.9887 193.5,34C 195.929,34.7033 198.262,34.5366 200.5,33.5C 200.5,35.1667 200.5,36.8333 200.5,38.5C 198.167,38.5 195.833,38.5 193.5,38.5C 193.433,39.9587 193.766,41.2921 194.5,42.5C 193.833,42.5 193.167,42.5 192.5,42.5C 191.167,41.8333 189.833,41.1667 188.5,40.5C 189.552,40.6495 190.552,40.4828 191.5,40C 190.568,36.9146 189.901,33.7479 189.5,30.5C 190.5,30.5 191.5,30.5 192.5,30.5 Z"/></g>
<g><path style="opacity:1" fill="#0e191c" d="M 82.5,35.5 C 82.5,35.8333 82.5,36.1667 82.5,36.5C 80.9468,38.3134 79.2801,40.1467 77.5,42C 74.2942,42.2963 71.1275,42.7963 68,43.5C 66.8261,42.4558 65.6594,41.4558 64.5,40.5C 65.1223,38.665 66.4556,37.4983 68.5,37C 73.118,36.006 77.7847,35.506 82.5,35.5 Z"/></g>
<g><path style="opacity:1" fill="#8aaab9" d="M 133.5,33.5 C 134.968,34.7791 135.635,36.4458 135.5,38.5C 132.038,39.4816 128.371,39.815 124.5,39.5C 123.508,39.6716 122.842,39.3382 122.5,38.5C 121.34,37.735 120.34,36.735 119.5,35.5C 123.991,33.7832 128.657,33.1165 133.5,33.5 Z"/></g>
<g><path style="opacity:1" fill="#789ca5" d="M 166.5,31.5 C 168.967,31.7549 170.967,32.7549 172.5,34.5C 176.506,35.613 180.506,36.9463 184.5,38.5C 185.995,38.9887 187.329,39.6554 188.5,40.5C 189.833,41.1667 191.167,41.8333 192.5,42.5C 183.472,39.7764 174.472,37.1097 165.5,34.5C 164.817,34.8627 164.15,35.1961 163.5,35.5C 163.5,35.1667 163.5,34.8333 163.5,34.5C 163.856,32.8102 164.856,31.8102 166.5,31.5 Z"/></g>
<g><path style="opacity:1" fill="#12282f" d="M 122.5,38.5 C 122.842,39.3382 123.508,39.6716 124.5,39.5C 130.165,40.2341 135.832,41.5675 141.5,43.5C 140.099,44.5207 138.765,45.5207 137.5,46.5C 130.5,46.5 123.5,46.5 116.5,46.5C 116.5,47.5 116.5,48.5 116.5,49.5C 113.547,49.8504 111.213,48.8504 109.5,46.5C 101.766,47.4538 94.0994,47.7871 86.5,47.5C 83.9768,46.6156 81.3102,45.7823 78.5,45C 81.7256,43.8011 85.059,43.3011 88.5,43.5C 88.8333,43.5 89.1667,43.5 89.5,43.5C 91.4564,45.548 93.9564,46.548 97,46.5C 100.888,46.4624 101.388,45.2958 98.5,43C 99.4709,41.5187 100.804,40.6854 102.5,40.5C 106.351,41.8095 110.351,41.8095 114.5,40.5C 113.737,39.2807 112.737,38.2807 111.5,37.5C 112.333,37.1667 113.167,36.8333 114,36.5C 116.731,37.6166 119.565,38.2833 122.5,38.5 Z"/></g>
<g><path style="opacity:1" fill="#1a2c27" d="M 163.5,34.5 C 163.5,34.8333 163.5,35.1667 163.5,35.5C 163.5,36.8333 163.5,38.1667 163.5,39.5C 164.635,40.4745 165.635,41.6412 166.5,43C 164.942,43.21 163.609,43.71 162.5,44.5C 162.276,48.1788 161.942,51.8455 161.5,55.5C 160.566,56.5676 160.232,57.901 160.5,59.5C 162.512,58.9862 164.512,58.8195 166.5,59C 165.833,60 165.167,61 164.5,62C 156.614,64.3413 148.948,63.8413 141.5,60.5C 143.078,59.7022 144.744,59.2022 146.5,59C 145.975,58.3076 145.308,57.8076 144.5,57.5C 143.48,49.8608 142.813,42.1941 142.5,34.5C 149.5,34.5 156.5,34.5 163.5,34.5 Z"/></g>
<g><path style="opacity:1" fill="#173843" d="M 200.5,33.5 C 201.167,33.5 201.5,33.8333 201.5,34.5C 202.209,35.404 203.209,35.7373 204.5,35.5C 204.5,37.1667 204.5,38.8333 204.5,40.5C 205.873,40.3433 207.207,40.51 208.5,41C 211.608,47.345 209.941,48.845 203.5,45.5C 200.406,44.7866 197.406,43.7866 194.5,42.5C 193.766,41.2921 193.433,39.9587 193.5,38.5C 195.833,38.5 198.167,38.5 200.5,38.5C 200.5,36.8333 200.5,35.1667 200.5,33.5 Z"/></g>
<g><path style="opacity:1" fill="#17363e" d="M 82.5,35.5 C 77.7847,35.506 73.118,36.006 68.5,37C 66.4556,37.4983 65.1223,38.665 64.5,40.5C 62.744,41.5521 62.0773,43.2188 62.5,45.5C 58.9581,45.1872 55.6248,45.5206 52.5,46.5C 50.5,46.8333 48.5,47.1667 46.5,47.5C 46.5,48.5 46.5,49.5 46.5,50.5C 45.9779,48.7809 44.9779,47.4475 43.5,46.5C 44.2579,41.762 42.9246,37.762 39.5,34.5C 41.5782,33.6926 43.2449,34.3592 44.5,36.5C 45.2186,38.7638 45.552,41.0971 45.5,43.5C 52.8053,44.181 59.1386,42.0143 64.5,37C 68.8035,35.8935 73.1368,34.8935 77.5,34C 76.2068,33.51 74.8734,33.3433 73.5,33.5C 73.5,32.5 73.5,31.5 73.5,30.5C 78.1701,29.4153 81.1701,31.082 82.5,35.5 Z"/></g>
<g><path style="opacity:1" fill="#90b1bd" d="M 53.5,40.5 C 49.7396,41.2264 47.073,39.8931 45.5,36.5C 45.281,35.325 45.6143,34.325 46.5,33.5C 49.6925,34.866 53.0258,35.6993 56.5,36C 56.9574,36.414 57.2907,36.914 57.5,37.5C 56.0986,38.5207 54.7653,39.5207 53.5,40.5 Z"/></g>
<g><path style="opacity:1" fill="#426c77" d="M 36.5,43.5 C 35.2921,42.7659 33.9587,42.4326 32.5,42.5C 32.8957,45.0444 32.229,47.2111 30.5,49C 31.0944,49.4643 31.7611,49.631 32.5,49.5C 29.6795,50.6368 26.6795,51.1368 23.5,51C 20.9816,49.4977 18.4816,47.9977 16,46.5C 15.51,45.2068 15.3433,43.8734 15.5,42.5C 18.3817,42.9861 21.0483,42.9861 23.5,42.5C 24.1667,42.5 24.8333,42.5 25.5,42.5C 27.9633,41.7674 30.2967,40.7674 32.5,39.5C 34.8483,39.8483 36.1816,41.1816 36.5,43.5 Z"/></g>
<g><path style="opacity:1" fill="#799dad" d="M 36.5,43.5 C 37.4867,45.4734 38.4867,47.4734 39.5,49.5C 38.3112,50.4287 36.9778,50.762 35.5,50.5C 34.791,49.596 33.791,49.2627 32.5,49.5C 31.7611,49.631 31.0944,49.4643 30.5,49C 32.229,47.2111 32.8957,45.0444 32.5,42.5C 33.9587,42.4326 35.2921,42.7659 36.5,43.5 Z"/></g>
<g><path style="opacity:1" fill="#1e3d45" d="M 218.5,35.5 C 220.754,36.4151 222.754,37.7484 224.5,39.5C 224.5,48.8333 224.5,58.1667 224.5,67.5C 224.167,67.5 223.833,67.5 223.5,67.5C 222.409,65.4658 220.743,64.1324 218.5,63.5C 218.5,60.8333 218.5,58.1667 218.5,55.5C 219.404,54.791 219.737,53.791 219.5,52.5C 217.397,51.3501 215.397,50.0167 213.5,48.5C 214.355,47.707 215.189,48.0403 216,49.5C 216.333,48.1667 216.667,46.8333 217,45.5C 217.419,46.6721 218.085,47.6721 219,48.5C 218.779,43.9822 218.612,39.6489 218.5,35.5 Z"/></g>
<g><path style="opacity:1" fill="#486c77" d="M 204.5,30.5 C 209.325,31.868 213.992,33.5347 218.5,35.5C 218.612,39.6489 218.779,43.9822 219,48.5C 218.085,47.6721 217.419,46.6721 217,45.5C 216.667,46.8333 216.333,48.1667 216,49.5C 215.189,48.0403 214.355,47.707 213.5,48.5C 215.397,50.0167 217.397,51.3501 219.5,52.5C 214.821,50.5571 209.821,49.0571 204.5,48C 203.748,47.3292 203.414,46.4959 203.5,45.5C 209.941,48.845 211.608,47.345 208.5,41C 207.207,40.51 205.873,40.3433 204.5,40.5C 204.5,38.8333 204.5,37.1667 204.5,35.5C 203.209,35.7373 202.209,35.404 201.5,34.5C 203.912,34.3059 204.912,32.9726 204.5,30.5 Z"/></g>
<g><path style="opacity:1" fill="#65919d" d="M 163.5,39.5 C 165.897,40.368 168.397,41.0347 171,41.5C 173.857,41.0322 176.691,40.8655 179.5,41C 173.45,42.7287 173.116,45.062 178.5,48C 183.887,48.7845 189.22,48.6178 194.5,47.5C 194.833,47.8333 195.167,48.1667 195.5,48.5C 193.703,49.6951 192.703,51.3618 192.5,53.5C 195.127,54.0916 197.794,54.4249 200.5,54.5C 196.637,55.9542 192.637,56.2875 188.5,55.5C 190.054,54.1054 189.721,53.4387 187.5,53.5C 185.845,54.228 184.179,54.3947 182.5,54C 183.308,53.6924 183.975,53.1924 184.5,52.5C 180.21,49.9089 175.543,48.9089 170.5,49.5C 170.5,48.1667 170.5,46.8333 170.5,45.5C 167.794,45.4249 165.127,45.0916 162.5,44.5C 163.609,43.71 164.942,43.21 166.5,43C 165.635,41.6412 164.635,40.4745 163.5,39.5 Z"/></g>
<g><path style="opacity:1" fill="#214a55" d="M 109.5,46.5 C 111.213,48.8504 113.547,49.8504 116.5,49.5C 116.5,48.5 116.5,47.5 116.5,46.5C 123.5,46.5 130.5,46.5 137.5,46.5C 136.571,47.3149 135.571,48.1482 134.5,49C 136.587,48.7821 138.587,48.9488 140.5,49.5C 135.739,52.2199 130.739,52.8866 125.5,51.5C 126.263,50.2807 127.263,49.2807 128.5,48.5C 126.955,47.5481 125.288,47.2148 123.5,47.5C 123.473,49.1993 122.806,50.5326 121.5,51.5C 120.127,51.3433 118.793,51.51 117.5,52C 118.056,52.3826 118.389,52.8826 118.5,53.5C 115.5,52.1667 112.5,52.1667 109.5,53.5C 110.347,52.0337 111.68,51.2004 113.5,51C 111.613,50.2204 109.946,50.3871 108.5,51.5C 107.127,51.6567 105.793,51.49 104.5,51C 106.692,49.9331 108.358,48.4331 109.5,46.5 Z"/></g>
<g><path style="opacity:1" fill="#7ca1ad" d="M 52.5,46.5 C 56.1817,46.3347 59.8484,46.5014 63.5,47C 59.0441,49.6261 55.0441,52.7928 51.5,56.5C 50.2888,55.7261 50.2888,54.8928 51.5,54C 50.0993,53.5899 48.766,53.0899 47.5,52.5C 47.1667,51.8333 46.8333,51.1667 46.5,50.5C 46.5,49.5 46.5,48.5 46.5,47.5C 48.5,47.1667 50.5,46.8333 52.5,46.5 Z"/></g>
<g><path style="opacity:1" fill="#1d1e1c" d="M 85.5,48.5 C 83.7359,52.8663 80.4026,54.6996 75.5,54C 74.6266,55.045 73.6266,55.8783 72.5,56.5C 71.7354,56.9234 70.9021,57.2568 70,57.5C 67.7903,55.8891 65.2903,55.2224 62.5,55.5C 62.7796,52.7133 64.113,50.5466 66.5,49C 72.8246,48.5005 79.1579,48.3338 85.5,48.5 Z"/></g>
<g><path style="opacity:1" fill="#8fb3bc" d="M 162.5,44.5 C 165.127,45.0916 167.794,45.4249 170.5,45.5C 170.5,46.8333 170.5,48.1667 170.5,49.5C 175.543,48.9089 180.21,49.9089 184.5,52.5C 183.975,53.1924 183.308,53.6924 182.5,54C 184.179,54.3947 185.845,54.228 187.5,53.5C 189.721,53.4387 190.054,54.1054 188.5,55.5C 185.873,56.0916 183.206,56.4249 180.5,56.5C 179.794,55.4427 179.461,55.7761 179.5,57.5C 176.934,57.3444 174.434,57.6777 172,58.5C 171.5,58.3333 171,58.1667 170.5,58C 171.672,57.5814 172.672,56.9147 173.5,56C 173.167,55.8333 172.833,55.6667 172.5,55.5C 168.556,57.982 164.889,57.982 161.5,55.5C 161.942,51.8455 162.276,48.1788 162.5,44.5 Z"/></g>
<g><path style="opacity:1" fill="#9dbec8" d="M 192.5,42.5 C 193.167,42.5 193.833,42.5 194.5,42.5C 197.406,43.7866 200.406,44.7866 203.5,45.5C 203.414,46.4959 203.748,47.3292 204.5,48C 209.821,49.0571 214.821,50.5571 219.5,52.5C 219.737,53.791 219.404,54.791 218.5,55.5C 215.15,55.665 211.817,55.4983 208.5,55C 209.328,54.0853 210.328,53.4186 211.5,53C 210.128,52.5983 208.795,52.0983 207.5,51.5C 205.513,53.3274 203.179,54.3274 200.5,54.5C 197.794,54.4249 195.127,54.0916 192.5,53.5C 192.703,51.3618 193.703,49.6951 195.5,48.5C 195.167,48.1667 194.833,47.8333 194.5,47.5C 189.22,48.6178 183.887,48.7845 178.5,48C 173.116,45.062 173.45,42.7287 179.5,41C 176.691,40.8655 173.857,41.0322 171,41.5C 168.397,41.0347 165.897,40.368 163.5,39.5C 163.5,38.1667 163.5,36.8333 163.5,35.5C 164.15,35.1961 164.817,34.8627 165.5,34.5C 174.472,37.1097 183.472,39.7764 192.5,42.5 Z"/></g>
<g><path style="opacity:1" fill="#396a75" d="M 148.5,13.5 C 147.417,13.5394 146.417,13.8728 145.5,14.5C 144.339,18.7953 144.172,23.1287 145,27.5C 146.444,25.8446 148.278,25.178 150.5,25.5C 153.789,26.3739 157.123,27.0405 160.5,27.5C 162.751,28.4106 164.751,29.744 166.5,31.5C 164.856,31.8102 163.856,32.8102 163.5,34.5C 156.5,34.5 149.5,34.5 142.5,34.5C 142.813,42.1941 143.48,49.8608 144.5,57.5C 145.308,57.8076 145.975,58.3076 146.5,59C 144.744,59.2022 143.078,59.7022 141.5,60.5C 148.948,63.8413 156.614,64.3413 164.5,62C 165.167,61 165.833,60 166.5,59C 164.512,58.8195 162.512,58.9862 160.5,59.5C 160.232,57.901 160.566,56.5676 161.5,55.5C 164.889,57.982 168.556,57.982 172.5,55.5C 172.833,55.6667 173.167,55.8333 173.5,56C 172.672,56.9147 171.672,57.5814 170.5,58C 171,58.1667 171.5,58.3333 172,58.5C 174.434,57.6777 176.934,57.3444 179.5,57.5C 179.256,60.2626 177.923,62.4293 175.5,64C 177.437,64.1216 178.77,64.955 179.5,66.5C 177.5,66.5 175.5,66.5 173.5,66.5C 171.906,66.9195 170.406,67.5862 169,68.5C 167.441,67.9706 165.941,67.304 164.5,66.5C 158.621,67.553 152.954,67.553 147.5,66.5C 147.12,65.8669 146.787,65.2003 146.5,64.5C 145.914,64.7093 145.414,65.0426 145,65.5C 141.772,63.6866 138.439,62.0199 135,60.5C 134.667,60.8333 134.333,61.1667 134,61.5C 133.517,60.552 133.351,59.552 133.5,58.5C 135.549,58.2942 135.883,57.4609 134.5,56C 130.071,54.6466 125.737,53.1466 121.5,51.5C 122.806,50.5326 123.473,49.1993 123.5,47.5C 125.288,47.2148 126.955,47.5481 128.5,48.5C 127.263,49.2807 126.263,50.2807 125.5,51.5C 130.739,52.8866 135.739,52.2199 140.5,49.5C 138.587,48.9488 136.587,48.7821 134.5,49C 135.571,48.1482 136.571,47.3149 137.5,46.5C 138.765,45.5207 140.099,44.5207 141.5,43.5C 135.832,41.5675 130.165,40.2341 124.5,39.5C 128.371,39.815 132.038,39.4816 135.5,38.5C 137.167,38.5 138.833,38.5 140.5,38.5C 141.823,30.8943 142.823,23.2276 143.5,15.5C 141.408,15.5614 139.908,16.5614 139,18.5C 138.798,16.7444 138.298,15.0777 137.5,13.5C 136.831,15.6309 136.165,17.6309 135.5,19.5C 135.5,17.5 135.5,15.5 135.5,13.5C 135.5,13.1667 135.5,12.8333 135.5,12.5C 137.492,12.3285 139.158,12.9951 140.5,14.5C 143.46,13.4869 146.127,12.1535 148.5,10.5C 148.5,11.5 148.5,12.5 148.5,13.5 Z"/></g>
<g><path style="opacity:1" fill="#0d2229" d="M -0.5,9.5 C 6.84221,17.1882 13.5089,25.5216 19.5,34.5C 20.4287,33.3112 20.762,31.9778 20.5,30.5C 21.3227,33.977 21.8227,37.6437 22,41.5C 22.3826,42.056 22.8826,42.3893 23.5,42.5C 21.0483,42.9861 18.3817,42.9861 15.5,42.5C 15.3433,43.8734 15.51,45.2068 16,46.5C 18.4816,47.9977 20.9816,49.4977 23.5,51C 26.6795,51.1368 29.6795,50.6368 32.5,49.5C 33.791,49.2627 34.791,49.596 35.5,50.5C 35.9528,51.4584 36.6195,52.2917 37.5,53C 40.9296,52.3974 42.9296,50.2307 43.5,46.5C 44.9779,47.4475 45.9779,48.7809 46.5,50.5C 46.8333,51.1667 47.1667,51.8333 47.5,52.5C 46.0512,54.1644 44.0512,54.9977 41.5,55C 42.5634,56.1882 43.8967,56.6882 45.5,56.5C 44.6016,57.1577 43.6016,57.8243 42.5,58.5C 44.9732,60.0615 46.9732,62.0615 48.5,64.5C 45.1699,66.161 41.8366,67.8276 38.5,69.5C 37.7696,67.6587 37.1029,65.8254 36.5,64C 34.1667,63.6667 31.8333,63.3333 29.5,63C 27.6909,60.7621 25.3576,59.5954 22.5,59.5C 21.8051,57.0219 20.3051,55.0219 18,53.5C 17.5172,52.552 17.3505,51.552 17.5,50.5C 11.5638,46.7279 6.73044,41.7279 3,35.5C 1.88732,34.695 0.72065,34.0283 -0.5,33.5C -0.5,25.5 -0.5,17.5 -0.5,9.5 Z"/></g>
<g><path style="opacity:1" fill="#1d2321" d="M 118.5,53.5 C 118.672,54.4916 118.338,55.1583 117.5,55.5C 114.211,56.3739 110.877,57.0405 107.5,57.5C 107.229,55.6203 107.896,54.287 109.5,53.5C 112.5,52.1667 115.5,52.1667 118.5,53.5 Z"/></g>
<g><path style="opacity:1" fill="#a0c1c9" d="M 121.5,51.5 C 125.737,53.1466 130.071,54.6466 134.5,56C 135.883,57.4609 135.549,58.2942 133.5,58.5C 129.485,57.4881 125.485,56.4881 121.5,55.5C 120.5,54.8333 119.5,54.1667 118.5,53.5C 118.389,52.8826 118.056,52.3826 117.5,52C 118.793,51.51 120.127,51.3433 121.5,51.5 Z"/></g>
<g><path style="opacity:1" fill="#9baeb1" d="M 109.5,46.5 C 108.358,48.4331 106.692,49.9331 104.5,51C 105.793,51.49 107.127,51.6567 108.5,51.5C 107.057,55.1382 104.557,56.1382 101,54.5C 94.3361,56.0867 94.1694,57.2534 100.5,58C 98.8455,58.6077 97.1789,59.1077 95.5,59.5C 94.1664,58.3479 92.6664,57.3479 91,56.5C 87.2026,58.9779 83.3692,61.3113 79.5,63.5C 78.1266,63.6567 76.7932,63.49 75.5,63C 76.627,61.2467 77.627,59.4134 78.5,57.5C 76.463,57.5017 74.463,57.1684 72.5,56.5C 73.6266,55.8783 74.6266,55.045 75.5,54C 80.4026,54.6996 83.7359,52.8663 85.5,48.5C 86.1667,48.5 86.5,48.1667 86.5,47.5C 94.0994,47.7871 101.766,47.4538 109.5,46.5 Z"/></g>
<g><path style="opacity:1" fill="#326872" d="M 218.5,55.5 C 218.5,58.1667 218.5,60.8333 218.5,63.5C 213.968,63.1818 209.634,63.5151 205.5,64.5C 197.143,60.9989 188.643,60.6656 180,63.5C 179.5,63.3333 179,63.1667 178.5,63C 180.229,61.2111 180.896,59.0444 180.5,56.5C 183.206,56.4249 185.873,56.0916 188.5,55.5C 192.637,56.2875 196.637,55.9542 200.5,54.5C 203.179,54.3274 205.513,53.3274 207.5,51.5C 208.795,52.0983 210.128,52.5983 211.5,53C 210.328,53.4186 209.328,54.0853 208.5,55C 211.817,55.4983 215.15,55.665 218.5,55.5 Z"/></g>
<g><path style="opacity:1" fill="#274550" d="M 102.5,11.5 C 96.8236,11.3339 91.1569,11.5006 85.5,12C 84.6198,13.3561 84.2865,14.8561 84.5,16.5C 85.8333,16.5 87.1667,16.5 88.5,16.5C 88.1796,19.8984 88.513,23.2317 89.5,26.5C 91.7271,30.2803 95.0605,31.947 99.5,31.5C 100.552,33.256 102.219,33.9227 104.5,33.5C 104.6,36.1085 103.933,38.4418 102.5,40.5C 100.804,40.6854 99.4709,41.5187 98.5,43C 101.388,45.2958 100.888,46.4624 97,46.5C 93.9564,46.548 91.4564,45.548 89.5,43.5C 92.4057,44.7512 95.4057,45.2512 98.5,45C 97.5,44 96.5,43 95.5,42C 98.1935,39.905 97.8602,38.405 94.5,37.5C 93.3279,37.9186 92.3279,38.5853 91.5,39.5C 88.5096,36.6455 85.8429,36.9788 83.5,40.5C 85.1446,41.6963 86.8113,42.6963 88.5,43.5C 85.059,43.3011 81.7256,43.8011 78.5,45C 81.3102,45.7823 83.9768,46.6156 86.5,47.5C 86.5,48.1667 86.1667,48.5 85.5,48.5C 79.1579,48.3338 72.8246,48.5005 66.5,49C 64.113,50.5466 62.7796,52.7133 62.5,55.5C 65.2903,55.2224 67.7903,55.8891 70,57.5C 70.9021,57.2568 71.7354,56.9234 72.5,56.5C 74.463,57.1684 76.463,57.5017 78.5,57.5C 77.627,59.4134 76.627,61.2467 75.5,63C 76.7932,63.49 78.1266,63.6567 79.5,63.5C 80.1667,63.5 80.5,63.8333 80.5,64.5C 78.396,64.7989 76.396,64.4656 74.5,63.5C 73.4597,61.6251 71.9597,60.2918 70,59.5C 66.4957,61.1625 64.329,63.8292 63.5,67.5C 65.1667,67.5 66.8333,67.5 68.5,67.5C 68.5,68.5 68.5,69.5 68.5,70.5C 65.2791,69.4946 61.9457,68.6613 58.5,68C 55.744,62.3028 51.4107,58.4695 45.5,56.5C 43.8967,56.6882 42.5634,56.1882 41.5,55C 44.0512,54.9977 46.0512,54.1644 47.5,52.5C 48.766,53.0899 50.0993,53.5899 51.5,54C 50.2888,54.8928 50.2888,55.7261 51.5,56.5C 55.0441,52.7928 59.0441,49.6261 63.5,47C 59.8484,46.5014 56.1817,46.3347 52.5,46.5C 55.6248,45.5206 58.9581,45.1872 62.5,45.5C 62.0773,43.2188 62.744,41.5521 64.5,40.5C 65.6594,41.4558 66.8261,42.4558 68,43.5C 71.1275,42.7963 74.2942,42.2963 77.5,42C 79.2801,40.1467 80.9468,38.3134 82.5,36.5C 86.5352,35.8989 90.5352,35.0656 94.5,34C 89.1497,32.6754 85.483,29.5087 83.5,24.5C 83.9135,20.0943 84.2468,15.5943 84.5,11C 90.6812,10.1808 96.6812,10.3475 102.5,11.5 Z"/></g>
<g><path style="opacity:1" fill="#486a7a" d="M 89.5,43.5 C 89.1667,43.5 88.8333,43.5 88.5,43.5C 86.8113,42.6963 85.1446,41.6963 83.5,40.5C 85.8429,36.9788 88.5096,36.6455 91.5,39.5C 92.3279,38.5853 93.3279,37.9186 94.5,37.5C 97.8602,38.405 98.1935,39.905 95.5,42C 96.5,43 97.5,44 98.5,45C 95.4057,45.2512 92.4057,44.7512 89.5,43.5 Z"/></g>
<g><path style="opacity:1" fill="#3f504f" d="M 118.5,53.5 C 119.5,54.1667 120.5,54.8333 121.5,55.5C 121.137,57.9115 122.137,59.4115 124.5,60C 123.944,60.3826 123.611,60.8826 123.5,61.5C 121.598,60.6321 119.765,59.6321 118,58.5C 115.97,58.9537 114.137,59.6204 112.5,60.5C 109.753,60.1866 107.086,60.52 104.5,61.5C 104.418,65.6854 102.418,68.3521 98.5,69.5C 96.2534,68.6258 93.9201,68.2924 91.5,68.5C 96.3052,66.9199 100.305,64.0865 103.5,60C 108.572,59.3216 113.572,58.3216 118.5,57C 117.944,56.6174 117.611,56.1174 117.5,55.5C 118.338,55.1583 118.672,54.4916 118.5,53.5 Z"/></g>
<g><path style="opacity:1" fill="#010101" d="M -0.5,61.5 C 1.75206,63.1486 3.41872,65.3153 4.5,68C 7.72563,69.1989 11.059,69.6989 14.5,69.5C 14.5,70.8333 14.5,72.1667 14.5,73.5C 18.1667,73.5 21.8333,73.5 25.5,73.5C 25.5,74.5 25.5,75.5 25.5,76.5C 27.8333,76.5 30.1667,76.5 32.5,76.5C 33.254,81.4635 33.5874,86.4635 33.5,91.5C 42.2782,93.7194 48.7782,91.0527 53,83.5C 54.5874,84.727 55.9207,84.3937 57,82.5C 57.3333,84.8333 57.6667,87.1667 58,89.5C 59,90.1667 60,90.8333 61,91.5C 63.2632,87.8799 65.5965,84.2132 68,80.5C 70.2414,76.1935 71.5747,71.5269 72,66.5C 74.4976,68.155 75.9976,70.4883 76.5,73.5C 76.1543,74.6956 75.6543,74.6956 75,73.5C 74.032,77.8806 72.532,82.0473 70.5,86C 70.7355,86.8732 71.0688,87.7065 71.5,88.5C 70.5851,91.0873 69.5851,93.5873 68.5,96C 69.3784,97.8001 70.045,99.6334 70.5,101.5C 46.8333,101.5 23.1667,101.5 -0.5,101.5C -0.5,88.1667 -0.5,74.8333 -0.5,61.5 Z"/></g>
<g><path style="opacity:1" fill="#778d8f" d="M 95.5,59.5 C 92.5174,64.0976 88.184,65.7642 82.5,64.5C 81.8333,64.5 81.1667,64.5 80.5,64.5C 80.5,63.8333 80.1667,63.5 79.5,63.5C 83.3692,61.3113 87.2026,58.9779 91,56.5C 92.6664,57.3479 94.1664,58.3479 95.5,59.5 Z"/></g>
<g><path style="opacity:1" fill="#1a2e38" d="M 121.5,55.5 C 125.485,56.4881 129.485,57.4881 133.5,58.5C 133.351,59.552 133.517,60.552 134,61.5C 134.333,61.1667 134.667,60.8333 135,60.5C 138.439,62.0199 141.772,63.6866 145,65.5C 145.414,65.0426 145.914,64.7093 146.5,64.5C 146.787,65.2003 147.12,65.8669 147.5,66.5C 152.757,67.7899 152.424,68.7899 146.5,69.5C 140.619,68.5091 134.119,66.5091 127,63.5C 125.954,61.8048 124.787,61.4715 123.5,62.5C 123.5,62.1667 123.5,61.8333 123.5,61.5C 123.611,60.8826 123.944,60.3826 124.5,60C 122.137,59.4115 121.137,57.9115 121.5,55.5 Z"/></g>
<g><path style="opacity:1" fill="#556d6d" d="M 109.5,53.5 C 107.896,54.287 107.229,55.6203 107.5,57.5C 110.877,57.0405 114.211,56.3739 117.5,55.5C 117.611,56.1174 117.944,56.6174 118.5,57C 113.572,58.3216 108.572,59.3216 103.5,60C 100.305,64.0865 96.3052,66.9199 91.5,68.5C 91.8432,70.4832 91.1765,71.8166 89.5,72.5C 87.8536,69.1898 85.5203,66.5232 82.5,64.5C 88.184,65.7642 92.5174,64.0976 95.5,59.5C 97.1789,59.1077 98.8455,58.6077 100.5,58C 94.1694,57.2534 94.3361,56.0867 101,54.5C 104.557,56.1382 107.057,55.1382 108.5,51.5C 109.946,50.3871 111.613,50.2204 113.5,51C 111.68,51.2004 110.347,52.0337 109.5,53.5 Z"/></g>
<g><path style="opacity:1" fill="#9dbcc5" d="M 205.5,64.5 C 209.634,63.5151 213.968,63.1818 218.5,63.5C 220.743,64.1324 222.409,65.4658 223.5,67.5C 221.372,68.9573 219.038,69.9573 216.5,70.5C 213.028,68.2619 209.362,66.2619 205.5,64.5 Z"/></g>
<g><path style="opacity:1" fill="#98b7c3" d="M 173.5,66.5 C 175.5,66.5 177.5,66.5 179.5,66.5C 179.5,66.8333 179.5,67.1667 179.5,67.5C 179.87,71.1859 178.537,72.1859 175.5,70.5C 171.551,70.191 170.884,68.8577 173.5,66.5 Z"/></g>
<g><path style="opacity:1" fill="#1c3644" d="M 124.5,65.5 C 128.352,65.8695 132.019,66.8695 135.5,68.5C 128.268,71.1156 120.935,72.1156 113.5,71.5C 117.775,70.0387 122.109,68.5387 126.5,67C 125.584,66.7216 124.918,66.2216 124.5,65.5 Z"/></g>
<g><path style="opacity:1" fill="#070e10" d="M -0.5,33.5 C 0.72065,34.0283 1.88732,34.695 3,35.5C 6.73044,41.7279 11.5638,46.7279 17.5,50.5C 17.3505,51.552 17.5172,52.552 18,53.5C 20.3051,55.0219 21.8051,57.0219 22.5,59.5C 25.3576,59.5954 27.6909,60.7621 29.5,63C 31.8333,63.3333 34.1667,63.6667 36.5,64C 37.1029,65.8254 37.7696,67.6587 38.5,69.5C 41.8366,67.8276 45.1699,66.161 48.5,64.5C 46.9732,62.0615 44.9732,60.0615 42.5,58.5C 43.6016,57.8243 44.6016,57.1577 45.5,56.5C 51.4107,58.4695 55.744,62.3028 58.5,68C 61.9457,68.6613 65.2791,69.4946 68.5,70.5C 68.5,69.5 68.5,68.5 68.5,67.5C 66.8333,67.5 65.1667,67.5 63.5,67.5C 64.329,63.8292 66.4957,61.1625 70,59.5C 71.9597,60.2918 73.4597,61.6251 74.5,63.5C 76.396,64.4656 78.396,64.7989 80.5,64.5C 81.1667,64.5 81.8333,64.5 82.5,64.5C 85.5203,66.5232 87.8536,69.1898 89.5,72.5C 90.1049,75.1267 90.6049,77.7934 91,80.5C 99.1207,78.2156 104.954,73.2156 108.5,65.5C 108.291,64.914 107.957,64.414 107.5,64C 109.936,63.7935 111.602,62.6269 112.5,60.5C 114.137,59.6204 115.97,58.9537 118,58.5C 119.765,59.6321 121.598,60.6321 123.5,61.5C 123.5,61.8333 123.5,62.1667 123.5,62.5C 124.11,63.391 124.443,64.391 124.5,65.5C 124.918,66.2216 125.584,66.7216 126.5,67C 122.109,68.5387 117.775,70.0387 113.5,71.5C 112.957,71.56 112.624,71.8933 112.5,72.5C 114.423,73.3078 116.423,73.8078 118.5,74C 117.833,74.3333 117.167,74.6667 116.5,75C 118.5,76 120.5,77 122.5,78C 120.833,78.6667 119.167,78.6667 117.5,78C 114.831,75.795 111.831,74.795 108.5,75C 112.422,78.7513 117.088,80.9179 122.5,81.5C 126.485,86.8062 131.485,91.1396 137.5,94.5C 138.169,92.3691 138.835,90.3691 139.5,88.5C 141.293,86.5739 142.293,84.2406 142.5,81.5C 149.672,84.1437 156.839,84.1437 164,81.5C 164.725,79.8425 164.225,78.8425 162.5,78.5C 162.461,77.2438 162.961,76.2438 164,75.5C 168.459,76.6964 172.292,78.6964 175.5,81.5C 175.281,80.325 175.614,79.325 176.5,78.5C 177.939,79.0634 179.439,79.3968 181,79.5C 185.393,78.1343 189.893,77.4677 194.5,77.5C 199.531,80.1156 204.865,80.9489 210.5,80C 211.639,76.2721 213.639,73.1054 216.5,70.5C 219.038,69.9573 221.372,68.9573 223.5,67.5C 223.833,67.5 224.167,67.5 224.5,67.5C 224.5,78.1667 224.5,88.8333 224.5,99.5C 218.547,98.4431 212.547,97.7764 206.5,97.5C 206.306,94.6703 205.639,92.0037 204.5,89.5C 204.5,88.8333 204.5,88.1667 204.5,87.5C 207.391,86.5975 210.391,86.2641 213.5,86.5C 213.64,84.8762 212.973,83.7096 211.5,83C 208.525,82.9565 205.525,83.1231 202.5,83.5C 202.167,83.5 201.833,83.5 201.5,83.5C 199.672,81.3898 197.339,80.5565 194.5,81C 191.601,83.2815 188.601,85.4482 185.5,87.5C 188.203,88.8244 190.87,90.3244 193.5,92C 189.605,93.2662 185.605,93.7662 181.5,93.5C 181.5,96.1667 181.5,98.8333 181.5,101.5C 168.167,101.5 154.833,101.5 141.5,101.5C 141.67,100.178 141.337,99.0113 140.5,98C 129.194,94.0881 118.194,89.4214 107.5,84C 101.471,83.5356 95.4705,83.869 89.5,85C 85.716,86.9848 81.716,88.4848 77.5,89.5C 77.1373,90.1835 76.8039,90.8501 76.5,91.5C 74.7483,91.4176 73.7483,92.2509 73.5,94C 74.8785,96.3458 75.8785,98.8458 76.5,101.5C 74.5,101.5 72.5,101.5 70.5,101.5C 70.045,99.6334 69.3784,97.8001 68.5,96C 69.5851,93.5873 70.5851,91.0873 71.5,88.5C 71.0688,87.7065 70.7355,86.8732 70.5,86C 72.532,82.0473 74.032,77.8806 75,73.5C 75.6543,74.6956 76.1543,74.6956 76.5,73.5C 75.9976,70.4883 74.4976,68.155 72,66.5C 71.5747,71.5269 70.2414,76.1935 68,80.5C 65.5965,84.2132 63.2632,87.8799 61,91.5C 60,90.8333 59,90.1667 58,89.5C 57.6667,87.1667 57.3333,84.8333 57,82.5C 55.9207,84.3937 54.5874,84.727 53,83.5C 48.7782,91.0527 42.2782,93.7194 33.5,91.5C 33.5874,86.4635 33.254,81.4635 32.5,76.5C 30.1667,76.5 27.8333,76.5 25.5,76.5C 25.5,75.5 25.5,74.5 25.5,73.5C 21.8333,73.5 18.1667,73.5 14.5,73.5C 14.5,72.1667 14.5,70.8333 14.5,69.5C 11.059,69.6989 7.72563,69.1989 4.5,68C 3.41872,65.3153 1.75206,63.1486 -0.5,61.5C -0.5,52.1667 -0.5,42.8333 -0.5,33.5 Z"/></g>
<g><path style="opacity:1" fill="#143f48" d="M 180.5,56.5 C 180.896,59.0444 180.229,61.2111 178.5,63C 179,63.1667 179.5,63.3333 180,63.5C 188.643,60.6656 197.143,60.9989 205.5,64.5C 209.362,66.2619 213.028,68.2619 216.5,70.5C 213.639,73.1054 211.639,76.2721 210.5,80C 204.865,80.9489 199.531,80.1156 194.5,77.5C 194.5,77.1667 194.5,76.8333 194.5,76.5C 195.043,76.44 195.376,76.1067 195.5,75.5C 193.869,73.7026 191.869,72.5359 189.5,72C 187.554,68.3808 184.721,65.8808 181,64.5C 180.768,65.7375 180.268,66.7375 179.5,67.5C 179.5,67.1667 179.5,66.8333 179.5,66.5C 178.77,64.955 177.437,64.1216 175.5,64C 177.923,62.4293 179.256,60.2626 179.5,57.5C 179.461,55.7761 179.794,55.4427 180.5,56.5 Z"/></g>
<g><path style="opacity:1" fill="#335a67" d="M 194.5,76.5 C 189.897,75.9343 185.563,74.6009 181.5,72.5C 180.584,72.5427 179.917,72.8761 179.5,73.5C 177.821,73.2852 176.821,73.9519 176.5,75.5C 173.537,76.7412 170.537,76.7412 167.5,75.5C 164.938,74.3591 162.272,73.5257 159.5,73C 161.058,72.79 162.391,72.29 163.5,71.5C 167.642,70.7887 171.642,70.4554 175.5,70.5C 178.537,72.1859 179.87,71.1859 179.5,67.5C 180.268,66.7375 180.768,65.7375 181,64.5C 184.721,65.8808 187.554,68.3808 189.5,72C 191.869,72.5359 193.869,73.7026 195.5,75.5C 195.376,76.1067 195.043,76.44 194.5,76.5 Z"/></g>
<g><path style="opacity:1" fill="#0d1b21" d="M 147.5,66.5 C 152.954,67.553 158.621,67.553 164.5,66.5C 165.941,67.304 167.441,67.9706 169,68.5C 170.406,67.5862 171.906,66.9195 173.5,66.5C 170.884,68.8577 171.551,70.191 175.5,70.5C 171.642,70.4554 167.642,70.7887 163.5,71.5C 159.522,71.7202 155.855,72.7202 152.5,74.5C 149.214,75.2071 145.881,75.5405 142.5,75.5C 137.702,75.675 133.369,77.0083 129.5,79.5C 126.933,79.7215 124.599,80.3882 122.5,81.5C 117.088,80.9179 112.422,78.7513 108.5,75C 111.831,74.795 114.831,75.795 117.5,78C 119.167,78.6667 120.833,78.6667 122.5,78C 120.5,77 118.5,76 116.5,75C 117.167,74.6667 117.833,74.3333 118.5,74C 116.423,73.8078 114.423,73.3078 112.5,72.5C 112.624,71.8933 112.957,71.56 113.5,71.5C 120.935,72.1156 128.268,71.1156 135.5,68.5C 132.019,66.8695 128.352,65.8695 124.5,65.5C 124.443,64.391 124.11,63.391 123.5,62.5C 124.787,61.4715 125.954,61.8048 127,63.5C 134.119,66.5091 140.619,68.5091 146.5,69.5C 152.424,68.7899 152.757,67.7899 147.5,66.5 Z"/></g>
<g><path style="opacity:1" fill="#162423" d="M 112.5,60.5 C 111.602,62.6269 109.936,63.7935 107.5,64C 107.957,64.414 108.291,64.914 108.5,65.5C 104.954,73.2156 99.1207,78.2156 91,80.5C 90.6049,77.7934 90.1049,75.1267 89.5,72.5C 91.1765,71.8166 91.8432,70.4832 91.5,68.5C 93.9201,68.2924 96.2534,68.6258 98.5,69.5C 102.418,68.3521 104.418,65.6854 104.5,61.5C 107.086,60.52 109.753,60.1866 112.5,60.5 Z"/></g>
<g><path style="opacity:1" fill="#152e35" d="M 163.5,71.5 C 162.391,72.29 161.058,72.79 159.5,73C 162.272,73.5257 164.938,74.3591 167.5,75.5C 170.537,76.7412 173.537,76.7412 176.5,75.5C 178.179,75.7148 179.179,75.0481 179.5,73.5C 179.917,72.8761 180.584,72.5427 181.5,72.5C 185.563,74.6009 189.897,75.9343 194.5,76.5C 194.5,76.8333 194.5,77.1667 194.5,77.5C 189.893,77.4677 185.393,78.1343 181,79.5C 179.439,79.3968 177.939,79.0634 176.5,78.5C 175.614,79.325 175.281,80.325 175.5,81.5C 172.292,78.6964 168.459,76.6964 164,75.5C 162.961,76.2438 162.461,77.2438 162.5,78.5C 161.596,77.791 161.263,76.791 161.5,75.5C 158.455,75.4921 155.455,75.1587 152.5,74.5C 155.855,72.7202 159.522,71.7202 163.5,71.5 Z"/></g>
<g><path style="opacity:1" fill="#c2c12c" d="M 179.5,73.5 C 179.179,75.0481 178.179,75.7148 176.5,75.5C 176.821,73.9519 177.821,73.2852 179.5,73.5 Z"/></g>
<g><path style="opacity:1" fill="#426d80" d="M 142.5,75.5 C 142.5,76.1667 142.5,76.8333 142.5,77.5C 140.199,78.0604 137.866,78.5604 135.5,79C 137.956,81.159 137.29,81.9923 133.5,81.5C 133.5,82.5 133.5,83.5 133.5,84.5C 134.552,84.3505 135.552,84.5172 136.5,85C 133.15,85.9299 130.317,85.0965 128,82.5C 127.761,81.212 128.261,80.212 129.5,79.5C 133.369,77.0083 137.702,75.675 142.5,75.5 Z"/></g>
<g><path style="opacity:1" fill="#102935" d="M 142.5,77.5 C 144.527,77.3379 146.527,77.5045 148.5,78C 147.62,79.3561 147.286,80.8561 147.5,82.5C 150.279,82.7214 152.946,82.388 155.5,81.5C 156.167,81.5 156.833,81.5 157.5,81.5C 159.167,81.5 160.833,81.5 162.5,81.5C 162.5,80.5 162.5,79.5 162.5,78.5C 164.225,78.8425 164.725,79.8425 164,81.5C 156.839,84.1437 149.672,84.1437 142.5,81.5C 142.293,84.2406 141.293,86.5739 139.5,88.5C 139.579,87.0695 139.246,85.7362 138.5,84.5C 139.325,83.6143 140.325,83.281 141.5,83.5C 141.5,82.5 141.5,81.5 141.5,80.5C 145.005,80.3059 145.338,79.3059 142.5,77.5 Z"/></g>
<g><path style="opacity:1" fill="#1e4c5b" d="M 152.5,74.5 C 155.455,75.1587 158.455,75.4921 161.5,75.5C 161.263,76.791 161.596,77.791 162.5,78.5C 162.5,79.5 162.5,80.5 162.5,81.5C 160.833,81.5 159.167,81.5 157.5,81.5C 158.976,79.7704 158.642,78.4371 156.5,77.5C 154.358,78.4371 154.024,79.7704 155.5,81.5C 152.946,82.388 150.279,82.7214 147.5,82.5C 147.286,80.8561 147.62,79.3561 148.5,78C 146.527,77.5045 144.527,77.3379 142.5,77.5C 142.5,76.8333 142.5,76.1667 142.5,75.5C 145.881,75.5405 149.214,75.2071 152.5,74.5 Z"/></g>
<g><path style="opacity:1" fill="#ebe7e8" d="M 157.5,81.5 C 156.833,81.5 156.167,81.5 155.5,81.5C 154.024,79.7704 154.358,78.4371 156.5,77.5C 158.642,78.4371 158.976,79.7704 157.5,81.5 Z"/></g>
<g><path style="opacity:1" fill="#235362" d="M 204.5,87.5 C 204.267,85.9382 203.6,84.6049 202.5,83.5C 205.525,83.1231 208.525,82.9565 211.5,83C 212.973,83.7096 213.64,84.8762 213.5,86.5C 210.391,86.2641 207.391,86.5975 204.5,87.5 Z"/></g>
<g><path style="opacity:1" fill="#244f66" d="M 142.5,77.5 C 145.338,79.3059 145.005,80.3059 141.5,80.5C 141.5,81.5 141.5,82.5 141.5,83.5C 140.325,83.281 139.325,83.6143 138.5,84.5C 139.246,85.7362 139.579,87.0695 139.5,88.5C 138.835,90.3691 138.169,92.3691 137.5,94.5C 131.485,91.1396 126.485,86.8062 122.5,81.5C 124.599,80.3882 126.933,79.7215 129.5,79.5C 128.261,80.212 127.761,81.212 128,82.5C 130.317,85.0965 133.15,85.9299 136.5,85C 135.552,84.5172 134.552,84.3505 133.5,84.5C 133.5,83.5 133.5,82.5 133.5,81.5C 137.29,81.9923 137.956,81.159 135.5,79C 137.866,78.5604 140.199,78.0604 142.5,77.5 Z"/></g>
<g><path style="opacity:1" fill="#618a96" d="M 87.5,89.5 C 96.3238,88.3427 105.324,88.176 114.5,89C 117.306,91.8063 120.14,94.6396 123,97.5C 123.484,99.1933 122.984,100.527 121.5,101.5C 119.5,101.5 117.5,101.5 115.5,101.5C 116.357,100.198 116.857,98.8649 117,97.5C 114.141,94.9712 111.308,92.4712 108.5,90C 101.508,89.5004 94.5079,89.3337 87.5,89.5 Z"/></g>
<g><path style="opacity:1" fill="#95b5bd" d="M 87.5,89.5 C 94.5079,89.3337 101.508,89.5004 108.5,90C 111.308,92.4712 114.141,94.9712 117,97.5C 116.857,98.8649 116.357,100.198 115.5,101.5C 102.5,101.5 89.5,101.5 76.5,101.5C 75.8785,98.8458 74.8785,96.3458 73.5,94C 73.7483,92.2509 74.7483,91.4176 76.5,91.5C 79.9207,89.8534 83.5874,89.1868 87.5,89.5 Z"/></g>
<g><path style="opacity:1" fill="#45737f" d="M 201.5,83.5 C 201.833,83.5 202.167,83.5 202.5,83.5C 203.6,84.6049 204.267,85.9382 204.5,87.5C 204.5,88.1667 204.5,88.8333 204.5,89.5C 204.036,91.9135 203.702,94.4135 203.5,97C 201.167,97.6667 198.833,97.6667 196.5,97C 195.872,94.1816 194.872,91.5149 193.5,89C 194.885,87.4029 195.551,85.5695 195.5,83.5C 197.5,83.5 199.5,83.5 201.5,83.5 Z"/></g>
<g><path style="opacity:1" fill="#396773" d="M 141.5,101.5 C 134.833,101.5 128.167,101.5 121.5,101.5C 122.984,100.527 123.484,99.1933 123,97.5C 120.14,94.6396 117.306,91.8063 114.5,89C 105.324,88.176 96.3238,88.3427 87.5,89.5C 83.5874,89.1868 79.9207,89.8534 76.5,91.5C 76.8039,90.8501 77.1373,90.1835 77.5,89.5C 81.716,88.4848 85.716,86.9848 89.5,85C 95.4705,83.869 101.471,83.5356 107.5,84C 118.194,89.4214 129.194,94.0881 140.5,98C 141.337,99.0113 141.67,100.178 141.5,101.5 Z"/></g>
<g><path style="opacity:1" fill="#1d4d59" d="M 201.5,83.5 C 199.5,83.5 197.5,83.5 195.5,83.5C 195.551,85.5695 194.885,87.4029 193.5,89C 194.872,91.5149 195.872,94.1816 196.5,97C 198.833,97.6667 201.167,97.6667 203.5,97C 203.702,94.4135 204.036,91.9135 204.5,89.5C 205.639,92.0037 206.306,94.6703 206.5,97.5C 212.547,97.7764 218.547,98.4431 224.5,99.5C 224.5,100.167 224.5,100.833 224.5,101.5C 210.167,101.5 195.833,101.5 181.5,101.5C 181.5,98.8333 181.5,96.1667 181.5,93.5C 185.605,93.7662 189.605,93.2662 193.5,92C 190.87,90.3244 188.203,88.8244 185.5,87.5C 188.601,85.4482 191.601,83.2815 194.5,81C 197.339,80.5565 199.672,81.3898 201.5,83.5 Z"/></g>
<g><path style="opacity:1" fill="#fdfdfd" d="M -0.5,101.5 C 23.1667,101.5 46.8333,101.5 70.5,101.5C 72.5,101.5 74.5,101.5 76.5,101.5C 89.5,101.5 102.5,101.5 115.5,101.5C 117.5,101.5 119.5,101.5 121.5,101.5C 128.167,101.5 134.833,101.5 141.5,101.5C 154.833,101.5 168.167,101.5 181.5,101.5C 195.833,101.5 210.167,101.5 224.5,101.5C 224.5,148.5 224.5,195.5 224.5,242.5C 149.5,242.5 74.5,242.5 -0.5,242.5C -0.5,195.5 -0.5,148.5 -0.5,101.5 Z"/></g>
<g><path style="opacity:1" fill="#4a4a4b" d="M 14.5,125.5 C 15.8048,127.397 16.4714,129.731 16.5,132.5C 16.1667,134.833 15.8333,137.167 15.5,139.5C 14.5067,134.88 14.1734,130.214 14.5,125.5 Z"/></g>
<g><path style="opacity:1" fill="#272728" d="M 18.5,125.5 C 22.226,125.177 25.8927,125.511 29.5,126.5C 27.9547,127.452 26.288,127.785 24.5,127.5C 23.8333,143.5 23.1667,143.5 22.5,127.5C 20.5168,127.843 19.1834,127.176 18.5,125.5 Z"/></g>
<g><path style="opacity:1" fill="#303030" d="M 38.5,125.5 C 40.604,125.201 42.604,125.534 44.5,126.5C 42.9547,127.452 41.288,127.785 39.5,127.5C 39.5,128.5 39.5,129.5 39.5,130.5C 44.7083,130.369 46.3749,132.702 44.5,137.5C 41.9285,139.852 39.2618,140.019 36.5,138C 38.5,137.667 40.5,137.333 42.5,137C 43.8333,135.667 43.8333,134.333 42.5,133C 40.8659,132.506 39.1992,132.34 37.5,132.5C 37.448,130.097 37.7814,127.764 38.5,125.5 Z"/></g>
<g><path style="opacity:1" fill="#202021" d="M 51.5,137.5 C 52.8032,134.645 52.8032,131.645 51.5,128.5C 50.8933,128.624 50.56,128.957 50.5,129.5C 49.7611,129.631 49.0944,129.464 48.5,129C 49.6853,127.647 51.0186,126.48 52.5,125.5C 53.4922,129.783 53.8256,134.116 53.5,138.5C 55.7063,139.584 54.373,139.751 49.5,139C 50.4158,138.722 51.0825,138.222 51.5,137.5 Z"/></g>
<g><path style="opacity:1" fill="#202021" d="M 96.5,137.5 C 97.8032,134.645 97.8032,131.645 96.5,128.5C 95.8933,128.624 95.56,128.957 95.5,129.5C 94.7611,129.631 94.0944,129.464 93.5,129C 94.6853,127.647 96.0186,126.48 97.5,125.5C 98.4922,129.783 98.8256,134.116 98.5,138.5C 100.706,139.584 99.373,139.751 94.5,139C 95.4158,138.722 96.0825,138.222 96.5,137.5 Z"/></g>
<g><path style="opacity:1" fill="#313131" d="M 105.5,125.5 C 107.924,125.192 110.257,125.526 112.5,126.5C 110.604,127.466 108.604,127.799 106.5,127.5C 106.5,128.5 106.5,129.5 106.5,130.5C 111.494,130.329 113.328,132.662 112,137.5C 109.637,139.907 107.137,140.074 104.5,138C 106.473,137.505 108.473,137.338 110.5,137.5C 110.5,135.833 110.5,134.167 110.5,132.5C 108.5,132.5 106.5,132.5 104.5,132.5C 104.674,130.139 105.007,127.806 105.5,125.5 Z"/></g>
<g><path style="opacity:1" fill="#2b2b2c" d="M 61.5,125.5 C 68.1094,126.258 70.2761,129.925 68,136.5C 65,140.5 62,140.5 59,136.5C 57.8118,132.259 58.6451,128.592 61.5,125.5 Z"/></g>
<g><path style="opacity:1" fill="#f1f1f1" d="M 61.5,127.5 C 63.1439,127.286 64.6439,127.62 66,128.5C 66.6667,130.833 66.6667,133.167 66,135.5C 64.3333,138.167 62.6667,138.167 61,135.5C 60.2782,132.739 60.4448,130.073 61.5,127.5 Z"/></g>
<g><path style="opacity:1" fill="#2b2b2c" d="M 81.5,125.5 C 87.3752,124.542 90.3752,127.042 90.5,133C 90.604,135.145 89.9373,136.979 88.5,138.5C 89.3128,139.814 90.3128,140.981 91.5,142C 90.5,142.667 89.5,142.667 88.5,142C 85.5237,140.141 82.3571,138.641 79,137.5C 76.5226,132.669 77.356,128.669 81.5,125.5 Z"/></g>
<g><path style="opacity:1" fill="#f7f7f7" d="M 81.5,127.5 C 88.6275,127.706 90.2942,130.873 86.5,137C 80.4983,137.993 78.3317,135.493 80,129.5C 80.7172,128.956 81.2172,128.289 81.5,127.5 Z"/></g>
<g><path style="opacity:1" fill="#7f7f80" d="M 50.5,129.5 C 50.56,128.957 50.8933,128.624 51.5,128.5C 52.8032,131.645 52.8032,134.645 51.5,137.5C 51.8064,134.615 51.4731,131.948 50.5,129.5 Z"/></g>
<g><path style="opacity:1" fill="#7f7f80" d="M 95.5,129.5 C 95.56,128.957 95.8933,128.624 96.5,128.5C 97.8032,131.645 97.8032,134.645 96.5,137.5C 96.8064,134.615 96.4731,131.948 95.5,129.5 Z"/></g>
<g><path style="opacity:1" fill="#373738" d="M 128.5,125.5 C 131.547,124.855 133.713,125.855 135,128.5C 136.023,132.317 135.523,135.817 133.5,139C 130.472,140.14 128.305,139.306 127,136.5C 126.112,132.598 126.612,128.931 128.5,125.5 Z"/></g>
<g><path style="opacity:1" fill="#fcfcfc" d="M 129.5,127.5 C 130.822,127.33 131.989,127.663 133,128.5C 133.667,131.167 133.667,133.833 133,136.5C 131.667,137.833 130.333,137.833 129,136.5C 128.264,133.408 128.431,130.408 129.5,127.5 Z"/></g>
<g><path style="opacity:1" fill="#3a3a3b" d="M 117.5,125.5 C 123.158,124.679 124.825,126.846 122.5,132C 125.666,137.519 123.999,139.852 117.5,139C 115.842,138.275 115.342,137.108 116,135.5C 118.257,138.119 120.423,138.119 122.5,135.5C 121.737,134.281 120.737,133.281 119.5,132.5C 121.005,131.158 121.672,129.492 121.5,127.5C 119.516,127.383 117.85,128.05 116.5,129.5C 116.167,129.167 115.833,128.833 115.5,128.5C 116.193,127.482 116.859,126.482 117.5,125.5 Z"/></g>
<g><path style="opacity:1" fill="#373738" d="M 29.5,132.5 C 31.288,132.215 32.9547,132.548 34.5,133.5C 33.6667,133.833 32.8333,134.167 32,134.5C 30.6244,134.316 29.7911,133.649 29.5,132.5 Z"/></g>
<g><path style="opacity:1" fill="#373738" d="M 70.5,132.5 C 72.288,132.215 73.9547,132.548 75.5,133.5C 74.6667,133.833 73.8333,134.167 73,134.5C 71.6244,134.316 70.7911,133.649 70.5,132.5 Z"/></g>
<g><path style="opacity:1" fill="#232324" d="M 103.5,153.5 C 104.805,155.397 105.471,157.731 105.5,160.5C 105.167,162.833 104.833,165.167 104.5,167.5C 103.507,162.88 103.173,158.214 103.5,153.5 Z"/></g>
<g><path style="opacity:1" fill="#353536" d="M 121.5,153.5 C 122.552,153.351 123.552,153.517 124.5,154C 120.636,155.55 120.636,157.05 124.5,158.5C 123.675,159.386 122.675,159.719 121.5,159.5C 121.813,162.247 121.48,164.914 120.5,167.5C 119.752,164.503 119.085,161.503 118.5,158.5C 119.26,156.64 120.26,154.973 121.5,153.5 Z"/></g>
<g><path style="opacity:1" fill="#39393a" d="M 32.5,153.5 C 33.8048,155.397 34.4714,157.731 34.5,160.5C 34.3333,162.833 34.1667,165.167 34,167.5C 32.2784,167.038 30.445,166.872 28.5,167C 25.8333,164 25.8333,161 28.5,158C 29.7932,157.51 31.1266,157.343 32.5,157.5C 32.5,156.167 32.5,154.833 32.5,153.5 Z"/></g>
<g><path style="opacity:1" fill="#3c3c3d" d="M 56.5,157.5 C 58.1516,158.807 59.8182,158.807 61.5,157.5C 63.0293,157.529 64.196,158.196 65,159.5C 65.8184,162.227 65.6517,164.894 64.5,167.5C 63.52,164.914 63.1866,162.247 63.5,159.5C 61.8561,159.286 60.3561,159.62 59,160.5C 58.8142,162.9 58.3142,165.234 57.5,167.5C 56.513,164.232 56.1796,160.898 56.5,157.5 Z"/></g>
<g><path style="opacity:1" fill="#2c2c2d" d="M 108.5,157.5 C 110.962,157.618 113.462,157.951 116,158.5C 116.821,161.554 116.655,164.554 115.5,167.5C 114.52,164.914 114.187,162.247 114.5,159.5C 113.167,159.5 111.833,159.5 110.5,159.5C 110.813,162.247 110.48,164.914 109.5,167.5C 108.513,164.232 108.18,160.898 108.5,157.5 Z"/></g>
<g><path style="opacity:1" fill="#262627" d="M 17.5,153.5 C 18.5,153.5 19.5,153.5 20.5,153.5C 21.6695,158.174 23.3361,162.674 25.5,167C 23.0658,167.333 22.0658,166.166 22.5,163.5C 18.4856,162.824 15.4856,164.157 13.5,167.5C 13.1667,167.167 12.8333,166.833 12.5,166.5C 14.4574,162.256 16.1241,157.923 17.5,153.5 Z"/></g>
<g><path style="opacity:1" fill="#d6d6d7" d="M 18.5,156.5 C 19.7255,157.937 20.7255,159.604 21.5,161.5C 19.8333,162.833 18.1667,162.833 16.5,161.5C 17.4565,159.925 18.1231,158.258 18.5,156.5 Z"/></g>
<g><path style="opacity:1" fill="#f6f6f6" d="M 28.5,159.5 C 29.8333,159.5 31.1667,159.5 32.5,159.5C 32.5,161.5 32.5,163.5 32.5,165.5C 31.1667,165.5 29.8333,165.5 28.5,165.5C 28.5,163.5 28.5,161.5 28.5,159.5 Z"/></g>
<g><path style="opacity:1" fill="#383839" d="M 69.5,157.5 C 76.5072,157.954 76.8405,158.787 70.5,160C 68.6968,164.547 70.3634,166.547 75.5,166C 69.1376,168.648 66.6376,166.481 68,159.5C 68.7172,158.956 69.2172,158.289 69.5,157.5 Z"/></g>
<g><path style="opacity:1" fill="#2f2f30" d="M 78.5,157.5 C 82.938,156.425 84.938,158.092 84.5,162.5C 82.5,162.5 80.5,162.5 78.5,162.5C 78.5,163.5 78.5,164.5 78.5,165.5C 80.5273,165.338 82.5273,165.505 84.5,166C 79.8169,168.792 77.1503,167.458 76.5,162C 76.5186,160.167 77.1852,158.667 78.5,157.5 Z"/></g>
<g><path style="opacity:1" fill="#e9e9e9" d="M 79.5,159.5 C 81.1033,159.312 82.4366,159.812 83.5,161C 81.8333,161.667 80.1667,161.667 78.5,161C 79.056,160.617 79.3893,160.117 79.5,159.5 Z"/></g>
<g><path style="opacity:1" fill="#2d2d2e" d="M 127.5,157.5 C 134.628,157.706 136.294,160.873 132.5,167C 126.498,167.993 124.332,165.493 126,159.5C 126.717,158.956 127.217,158.289 127.5,157.5 Z"/></g>
<g><path style="opacity:1" fill="#f2f2f2" d="M 127.5,159.5 C 132.159,159.015 133.492,160.848 131.5,165C 130.207,165.49 128.873,165.657 127.5,165.5C 127.5,163.5 127.5,161.5 127.5,159.5 Z"/></g>
<g><path style="opacity:1" fill="#343435" d="M 51.5,166.5 C 50.3991,167.598 49.0657,167.765 47.5,167C 46.9781,166.439 46.6448,165.772 46.5,165C 48.0625,162.94 50.0625,161.44 52.5,160.5C 50.9223,159.702 49.2556,159.202 47.5,159C 52.1881,156.497 54.5215,157.997 54.5,163.5C 54.3333,164.833 54.1667,166.167 54,167.5C 53.3292,166.748 52.4959,166.414 51.5,166.5 Z"/></g>
<g><path style="opacity:1" fill="#e6e6e6" d="M 51.5,166.5 C 47.9251,165.793 47.7584,164.793 51,163.5C 52.6833,164.176 52.8499,165.176 51.5,166.5 Z"/></g>
<g><path style="opacity:1" fill="#2b2b2c" d="M 36.5,158.5 C 36.8966,157.475 37.5632,157.308 38.5,158C 39.218,159.987 40.218,161.821 41.5,163.5C 42.4104,161.345 43.5771,159.345 45,157.5C 44.7494,161.082 43.5827,164.416 41.5,167.5C 39.5376,164.567 37.8709,161.567 36.5,158.5 Z"/></g>
<g><path style="opacity:1" fill="#333334" d="M 93.5,153.5 C 94.8048,155.397 95.4714,157.731 95.5,160.5C 95.1667,162.833 94.8333,165.167 94.5,167.5C 92.6565,167.245 90.6565,167.078 88.5,167C 85.9406,164.075 85.9406,161.075 88.5,158C 90.1124,157.28 91.6124,157.446 93,158.5C 93.4935,156.866 93.6602,155.199 93.5,153.5 Z"/></g>
<g><path style="opacity:1" fill="#f0f0f0" d="M 89.5,159.5 C 90.8333,159.5 92.1667,159.5 93.5,159.5C 93.5,161.5 93.5,163.5 93.5,165.5C 88.7398,165.799 87.4064,163.799 89.5,159.5 Z"/></g>
<g><path style="opacity:1" fill="#2c2c2d" d="M 42.5,181.5 C 44.1765,182.183 44.8432,183.517 44.5,185.5C 46.7224,185.178 48.5557,185.845 50,187.5C 50.8184,190.227 50.6517,192.894 49.5,195.5C 48.52,192.914 48.1866,190.247 48.5,187.5C 47.1667,187.5 45.8333,187.5 44.5,187.5C 44.8134,190.247 44.48,192.914 43.5,195.5C 42.5067,190.88 42.1734,186.214 42.5,181.5 Z"/></g>
<g><path style="opacity:1" fill="#6c6c6d" d="M 75.5,181.5 C 76.8048,183.397 77.4714,185.731 77.5,188.5C 77.1667,190.833 76.8333,193.167 76.5,195.5C 75.5067,190.88 75.1734,186.214 75.5,181.5 Z"/></g>
<g><path style="opacity:1" fill="#333333" d="M 12.5,181.5 C 16.226,181.177 19.8927,181.511 23.5,182.5C 22.3112,183.429 20.9778,183.762 19.5,183.5C 18.8333,199.5 18.1667,199.5 17.5,183.5C 15.2188,183.923 13.5521,183.256 12.5,181.5 Z"/></g>
<g><path style="opacity:1" fill="#2e2e2f" d="M 117.5,181.5 C 122.494,181.329 124.328,183.662 123,188.5C 121.5,190 120,191.5 118.5,193C 120.577,193.192 122.577,193.692 124.5,194.5C 114.599,196.75 113.099,195.084 120,189.5C 121.128,187.655 121.628,185.655 121.5,183.5C 119.508,183.328 117.842,183.995 116.5,185.5C 116.167,185.167 115.833,184.833 115.5,184.5C 116.193,183.482 116.859,182.482 117.5,181.5 Z"/></g>
<g><path style="opacity:1" fill="#333333" d="M 136.5,181.5 C 140.226,181.177 143.893,181.511 147.5,182.5C 146.311,183.429 144.978,183.762 143.5,183.5C 142.833,199.5 142.167,199.5 141.5,183.5C 139.219,183.923 137.552,183.256 136.5,181.5 Z"/></g>
<g><path style="opacity:1" fill="#202021" d="M 172.5,193.5 C 173.803,190.645 173.803,187.645 172.5,184.5C 171.893,184.624 171.56,184.957 171.5,185.5C 170.761,185.631 170.094,185.464 169.5,185C 170.685,183.647 172.019,182.48 173.5,181.5C 174.492,185.783 174.826,190.116 174.5,194.5C 176.706,195.584 175.373,195.751 170.5,195C 171.416,194.722 172.082,194.222 172.5,193.5 Z"/></g>
<g><path style="opacity:1" fill="#7f7f80" d="M 171.5,185.5 C 171.56,184.957 171.893,184.624 172.5,184.5C 173.803,187.645 173.803,190.645 172.5,193.5C 172.806,190.615 172.473,187.948 171.5,185.5 Z"/></g>
<g><path style="opacity:1" fill="#29292a" d="M 53.5,185.5 C 61.002,184.708 63.3354,188.042 60.5,195.5C 59.52,192.914 59.1866,190.247 59.5,187.5C 58.1667,187.5 56.8333,187.5 55.5,187.5C 55.8134,190.247 55.48,192.914 54.5,195.5C 53.513,192.232 53.1796,188.898 53.5,185.5 Z"/></g>
<g><path style="opacity:1" fill="#2c2c2d" d="M 91.5,185.5 C 93.9267,185.523 96.26,186.023 98.5,187C 97.9513,190.381 95.9513,192.214 92.5,192.5C 94.3413,193.23 96.1746,193.897 98,194.5C 98.6838,195.784 98.5171,196.951 97.5,198C 95.1667,198.667 92.8333,198.667 90.5,198C 90.0426,197.586 89.7093,197.086 89.5,196.5C 91.4347,192.922 92.1014,189.255 91.5,185.5 Z"/></g>
<g><path style="opacity:1" fill="#3a3a3b" d="M 128.5,181.5 C 134.158,180.679 135.825,182.846 133.5,188C 136.666,193.519 134.999,195.852 128.5,195C 126.842,194.275 126.342,193.108 127,191.5C 129.257,194.119 131.423,194.119 133.5,191.5C 132.737,190.281 131.737,189.281 130.5,188.5C 132.005,187.158 132.672,185.492 132.5,183.5C 130.516,183.383 128.85,184.05 127.5,185.5C 127.167,185.167 126.833,184.833 126.5,184.5C 127.193,183.482 127.859,182.482 128.5,181.5 Z"/></g>
<g><path style="opacity:1" fill="#2f2f30" d="M 148.5,181.5 C 149.376,181.369 150.043,181.702 150.5,182.5C 151.332,185.161 152.166,187.828 153,190.5C 154.45,187.992 155.617,185.325 156.5,182.5C 157.002,181.479 157.668,181.312 158.5,182C 159.858,185.073 161.025,188.24 162,191.5C 162.732,187.885 164.065,184.552 166,181.5C 165.781,186.338 164.615,191.004 162.5,195.5C 160.468,192.441 158.801,189.108 157.5,185.5C 156.403,188.29 155.403,191.123 154.5,194C 154.15,195.257 153.483,195.591 152.5,195C 150.729,190.654 149.395,186.154 148.5,181.5 Z"/></g>
<g><path style="opacity:1" fill="#383839" d="M 34.5,185.5 C 41.5072,185.954 41.8405,186.787 35.5,188C 33.6968,192.547 35.3634,194.547 40.5,194C 34.1376,196.648 31.6376,194.481 33,187.5C 33.7172,186.956 34.2172,186.289 34.5,185.5 Z"/></g>
<g><path style="opacity:1" fill="#2a2a2b" d="M 65.5,185.5 C 72.6275,185.706 74.2942,188.873 70.5,195C 65.9667,196.471 63.6334,194.804 63.5,190C 63.5186,188.167 64.1852,186.667 65.5,185.5 Z"/></g>
<g><path style="opacity:1" fill="#f4f4f4" d="M 66.5,187.5 C 67.8333,187.5 69.1667,187.5 70.5,187.5C 70.5,189.5 70.5,191.5 70.5,193.5C 65.7398,193.799 64.4064,191.799 66.5,187.5 Z"/></g>
<g><path style="opacity:1" fill="#f5f5f5" d="M 92.5,187.5 C 93.5,187.5 94.5,187.5 95.5,187.5C 95.5,188.5 95.5,189.5 95.5,190.5C 94.5,190.5 93.5,190.5 92.5,190.5C 92.5,189.5 92.5,188.5 92.5,187.5 Z"/></g>
<g><path style="opacity:1" fill="#272728" d="M 81.5,185.5 C 88.3091,185.951 89.9758,189.118 86.5,195C 80.4983,195.993 78.3317,193.493 80,187.5C 80.7172,186.956 81.2172,186.289 81.5,185.5 Z"/></g>
<g><path style="opacity:1" fill="#e5e5e6" d="M 81.5,187.5 C 86.1585,187.015 87.4919,188.848 85.5,193C 81.1322,193.439 79.7988,191.606 81.5,187.5 Z"/></g>
<g><path style="opacity:1" fill="#2a2a2b" d="M 99.5,185.5 C 101.686,186.823 103.186,188.823 104,191.5C 105.252,189.999 106.252,188.332 107,186.5C 107.654,185.304 108.154,185.304 108.5,186.5C 106.994,190.845 104.994,194.845 102.5,198.5C 102.167,198.333 101.833,198.167 101.5,198C 102.293,196.915 102.96,195.748 103.5,194.5C 101.88,191.596 100.547,188.596 99.5,185.5 Z"/></g>
<g><path style="opacity:1" fill="#313132" d="M 24.5,185.5 C 28.5601,184.848 30.5601,186.515 30.5,190.5C 28.5,190.5 26.5,190.5 24.5,190.5C 24.5,191.5 24.5,192.5 24.5,193.5C 26.5273,193.338 28.5273,193.505 30.5,194C 24.1376,196.648 21.6376,194.481 23,187.5C 23.7172,186.956 24.2172,186.289 24.5,185.5 Z"/></g>
<g><path style="opacity:1" fill="#ededed" d="M 24.5,187.5 C 25.9778,187.238 27.3112,187.571 28.5,188.5C 27.8333,188.833 27.1667,189.167 26.5,189.5C 25.2867,189.253 24.62,188.586 24.5,187.5 Z"/></g>
<g><path style="opacity:1" fill="#d8d8d9" d="M 92.5,194.5 C 93.8333,194.5 95.1667,194.5 96.5,194.5C 96.5,195.5 96.5,196.5 96.5,197.5C 94.712,197.785 93.0453,197.452 91.5,196.5C 91.8627,195.817 92.1961,195.15 92.5,194.5 Z"/></g>
</svg>
